# xmcd
#
# Track frame offsets: 
#        150
#        22807
#        40927
#        64482
#        83050
#        103352
#        134022
#        149855
#        172630
#        197462
#        222334
#        239947
#        260437
#
# Disc length: 3760 seconds
#
# Revision: 0
# Processed by: cddbd v1.5.2PL0 Copyright (c) Steve Scherf et al.
# Submitted via: ExactAudioCopy v0.95b4
#
DISCID=c80eae0d
DTITLE=Dan Blocker Band - Still Ridin'
DYEAR=1998
DGENRE=Blues
TTITLE0=You'll regret it
TTITLE1=Soul mechanic
TTITLE2=No time for the underdog
TTITLE3=Boogie
TTITLE4=I swear
TTITLE5=Miss you so bad
TTITLE6=Devil in me
TTITLE7=Give it up
TTITLE8=Just one thing
TTITLE9=So long ago
TTITLE10=Time for you
TTITLE11=Can't stand telling you
TTITLE12=Universe calling
EXTD=
EXTT0=
EXTT1=
EXTT2=
EXTT3=
EXTT4=
EXTT5=
EXTT6=
EXTT7=
EXTT8=
EXTT9=
EXTT10=
EXTT11=
EXTT12=
PLAYORDER=
